<?xml version="1.0" encoding="UTF-8"?>
<svg id="Layer_1" data-name="Layer 1" xmlns="http://www.w3.org/2000/svg" viewBox="0 0 1247.688 623.844">
  <path d="M0,452.063c34.02-1.337,50.997,32.739,85.364,27.298,6.293-.996,14.079-5.186,20.976-6.749,32.382-7.337,52.493,7.766,59.537,39.687,1.658,7.512,5.431,36.14-1.257,39.421-15.493,7.599-11.411-18.53-12.339-25.832-1.628-12.806-7.308-33.363-21.047-37.855-17.92-5.859-29.615,5.246-45.643,7.144-39.325,4.656-50.008-23.261-85.591-27.526v-15.588Z"/>
  <path d="M596.118,0c.342,13.67-4.783,27.108-13.827,37.275-4.64,5.216-18.578,13.523-20.077,18.04-3.122,9.405,1.293,19.534.853,28.413-.833,16.806-11.37,38.162-29.234,41.945-8.414,1.782-43.712,3.521-45.206-7.132-.568-16.074,18.893-6.572,28.934-6.633,13.62-.082,23.276-4.964,27.46-18.35,5.628-18.004-6.697-38.852,8.649-53.713,2.795-2.706,7.347-4.242,10.35-6.976,9.537-8.681,16.862-19.342,16.501-32.87h15.596Z"/>
  <path d="M1219.962,0c.342,13.67-4.783,27.108-13.827,37.275-4.64,5.216-18.578,13.523-20.077,18.04-3.115,9.387,1.276,19.525.85,28.41-.797,16.638-11.607,38.215-29.231,41.948-8.414,1.782-43.712,3.521-45.206-7.132-.674-16.378,22.061-5.973,33.044-6.752,12.004-.851,19.771-6.787,23.351-18.231,5.631-18.002-6.699-38.85,8.649-53.713,2.795-2.706,7.347-4.242,10.35-6.976,9.537-8.681,16.862-19.342,16.501-32.87h15.596Z"/>
  <path d="M1110.789,0c-31.251,24.076,9.437,48.098,8.804,75.343-.56,24.082-31.455,40.852-52.992,40.84-4.591-.003-27.676-4.01-29.493-7.031-2.918-4.853-.245-11.141,5.317-12.151,12.382-2.25,22.465,6.398,39.877.1,44.383-16.052,4.016-45.846.916-70.396-1.326-10.503,1.404-17.308,5.044-26.706h22.528Z"/>
  <path d="M486.945,0c-30.184,23.966,7.492,46.839,8.718,73.693,1.141,24.981-31.052,42.452-52.911,42.494-8.241.016-31.906-2.245-30.36-13.033,1.726-12.043,23.761-2.668,31.913-2.874,15.122-.382,38.732-13.173,34.548-30.656-5.41-22.603-31.941-41.626-14.437-69.624h22.528Z"/>
  <path d="M1247.688,157.616v17.32c-18.601,12.512-2.701,37.949-3.382,56.332-.834,22.492-20.428,53.015-44.745,54.144-9.868.458-12.393-11.126-6.915-13.988,13.289-6.943,23.033-5.538,31.091-22.567,12.428-26.263-6.219-44.085.155-67.41,2.928-10.713,12.64-21.728,23.796-23.831Z"/>
  <path d="M720.887,623.536h-17.329c4.507-16.625,21.282-22.896,30.175-36.523,9.802-15.02,11.574-31.308,9.494-49.026-1.175-10.007-19.057-39.484-.742-37.442,9.062,1.01,15.762,29.348,16.497,37.283,3.786,40.838-9.779,59.3-38.096,85.708Z"/>
  <path d="M97.042,623.536h-17.329c4.603-16.808,22.116-23.77,30.887-37.544,9.263-14.546,10.776-31.021,8.782-48.005-1.174-10.002-19.061-39.498-.733-37.452,8.73.975,15.776,29.613,16.489,37.293,3.787,40.837-9.78,59.301-38.096,85.708Z"/>
  <path d="M1247.688,483.24v15.588c-25.841-.169-32.642,23.366-60.337,16.141-14.644-3.82-18.223-17.845-37.652-11.023-7.573,2.659-15.217,17.794-22.883,10.039-9.963-10.079,14.006-25.272,23.375-26.869,24.891-4.243,25.47,8.368,41.99,12.62,17.927,4.614,34.318-21.638,55.506-16.496Z"/>
  <path d="M670.632,623.536c4.574-11.813,6.596-24.296,15.52-33.851,16.771-17.959,27.466-17.301,24.316-48.4-.875-8.641-13.266-28.438.829-28.713,9.122-.178,10.292,8.128,12.175,15.717,3.527,14.215,4.457,28.701-.527,42.745-8.063,22.719-32.894,26.79-34.984,52.501h-17.329Z"/>
  <path d="M1247.688,576.771v22.517c-34.981,14.399-44.283-26.485-61.501-45.05-4.028-4.343-9.297-8.489-14.215-11.773-8.731-5.828-23.767-6.783-16.148-20.297,7.292-8.314,35.083,14.001,40.786,19.92,13.848,14.375,29.449,63.887,51.079,34.683Z"/>
  <path d="M64.117,623.536h-17.329c4.574-11.813,6.596-24.296,15.52-33.851,16.771-17.959,27.466-17.301,24.316-48.4-.848-8.373-13.261-28.801.883-28.779,15.104.024,15.796,38.653,14.282,49.091-4.384,30.23-34.182,32.715-37.672,61.939Z"/>
  <path d="M946.164,623.536h-32.925c-10.612-10.855-17.258-25.4-29.442-34.64,4.66,12.073,15.258,20.476,15.579,34.64h-15.596c-2.934-15.286-26.954-30.598-13.102-46.87,17.941-21.074,40.672,22.939,51.209,32.164,7.221,6.322,16.421,9.477,24.277,14.706Z"/>
  <path d="M322.319,623.536h-32.925c-10.612-10.855-17.258-25.4-29.442-34.64,4.66,12.073,15.258,20.476,15.579,34.64h-15.596c-2.934-15.286-26.954-30.598-13.102-46.87,17.941-21.074,40.672,22.939,51.209,32.164,7.221,6.322,16.421,9.477,24.277,14.706Z"/>
  <path d="M1070.932,623.536h-17.329c11.193-32.151,40.541-51.909,55.787-81.938,2.957-5.825,2.59-17.005,10.917-16.589,13.909.694,5.368,18.073,1.79,25.827-12.518,27.127-39.708,44.96-51.166,72.701Z"/>
  <path d="M447.088,623.536h-17.329c11.193-32.151,40.541-51.909,55.787-81.938,2.957-5.825,2.59-17.005,10.917-16.589,13.909.694,5.368,18.073,1.79,25.827-12.518,27.127-39.708,44.96-51.166,72.701Z"/>
  <path d="M1247.688,405.298v17.32c-29.52,10.742-67.71,14.432-79.985,48.205-23.333,3.105-9.761-18.821-1.426-28.251,19.197-21.719,55.926-26.053,81.411-37.274Z"/>
  <path d="M175.023,0c-5.407,13.236,19.819,7.652,28.177,9.076,21.595,3.679,34.222,36.793,28.657,55.522-1.887,6.352-11.945,5.861-14.093.824-4.239-9.94,1.295-38.104-17.718-41.07-19.076-2.976-43.093,7.187-42.353-24.352h17.329Z"/>
  <path d="M798.867,0c-5.407,13.236,19.819,7.652,28.177,9.076,21.595,3.679,34.222,36.793,28.657,55.522-1.887,6.352-11.945,5.861-14.093.824-4.239-9.94,1.295-38.104-17.718-41.07s-43.093,7.187-42.353-24.352h17.329Z"/>
  <path d="M798.867,623.536h-17.329c14.842-29.055,29.708-43.352,27.71-78.788-.423-7.502-8.518-20.904,6.094-20.109,6.918.377,8.269,9.337,9.073,15.338,4.47,33.356-8.004,56.948-25.547,83.558Z"/>
  <path d="M175.023,623.536h-17.329c15.008-28.976,29.71-43.33,27.71-78.788-.423-7.502-8.518-20.904,6.094-20.109,6.918.377,8.269,9.337,9.073,15.338,4.47,33.356-8.004,56.948-25.547,83.558Z"/>
  <path d="M530.267,0c-2.089,8.151-15.733,15.458-17.296,23.426-2.587,13.191,8.347,19.703,12.419,30.812,3.242,8.846,7.719,40.434-6.388,40.431-11.033-.002-5.965-12.537-5.983-17.523-.082-22.16-8.012-21.322-14.263-37.853-6.652-17.591.654-26.913,12.449-39.293h19.062Z"/>
  <path d="M1154.112,0c-2.967,9.06-18.024,17.347-18.557,27.115-.423,7.746,10.691,18.969,13.68,27.123,3.242,8.845,7.719,40.434-6.388,40.431-11.033-.002-5.965-12.537-5.983-17.523-.082-22.16-8.012-21.321-14.263-37.853-6.652-17.591.653-26.913,12.449-39.293h19.062Z"/>
  <path d="M1192.235,623.536h-17.329c8.438-18.24-1.183-39.04-15.576-51.115-5.582-4.683-21.39-11.785-24.094-15.757-3.685-5.414.138-12.377,5.97-12.889,3.231-.283,23.871,12.69,27.593,15.717,18.868,15.343,29.602,39.821,23.436,64.044Z"/>
  <path d="M568.391,623.536h-17.329c8.47-18.597-1.187-38.68-15.574-51.117-5.387-4.657-21.814-12.39-24.091-15.76-3.669-5.43.118-12.371,5.965-12.884,3.231-.283,23.871,12.69,27.593,15.717,18.868,15.343,29.602,39.821,23.436,64.044Z"/>
  <path d="M1247.688,296.179c-5.741,5.128-14.917,6.973-20.694,11.359-18.735,14.222,5.861,48.122-4.273,56.364-2.974,2.419-9.645,1.792-11.568-1.322-2.074-3.36-6.636-29.011-6.859-34.272-1.58-37.258,21.853-32.193,43.393-52.912v20.785Z"/>
  <path d="M376.039,623.536h-13.863c-1.634-8.945,2.575-14.957,1.708-25.105-1.338-15.662-11.048-27.079-8.482-44.898,2.546-17.685,26.137-28.328,26.015-12.254-.051,6.691-5.902,5.812-8.658,10.561-8.967,15.448,18.998,52.403,3.28,71.695Z"/>
  <path d="M999.883,623.536h-13.863c-3.107-6.994,2.503-11.674,2.463-19.28-.108-20.227-20.325-45.792-2.444-64.706,6.19-6.548,19.311-10.081,19.222,1.729-.051,6.691-5.902,5.812-8.658,10.561-8.967,15.448,18.998,52.403,3.28,71.695Z"/>
  <path d="M686.229,0c-4.9,16.728-20.746,32.81-37.348,38.014-8.309,2.605-18.041,2.485-26.011,5.179-5.606,1.895-22.761,18.457-23.458,2.697-.869-19.65,37.868-18.929,49.906-24.759,7.516-3.64,16.707-13.101,19.582-21.131h17.329Z"/>
  <path d="M0,65.818c21.341-14.992,50.703-9.683,66.733,10.376,7.187,8.993,17.763,29.993-2.174,26.509-6.409-7.463-7.213-15.32-16.002-22.198-17.231-13.486-32.949-7.752-48.558,4.366v-19.052Z"/>
  <path d="M0,516.149c15.216-7.175,29.301-11.596,46.467-7.473,15.487,3.72,33.195,25.982,22.875,41.275-15.392,5.165-10.781-12.349-17.314-20.368-11.347-13.926-41.449-4.773-52.027,7.351v-20.785Z"/>
  <path d="M0,420.887v-17.32c12.011-5.228,18.068-19.55,19.124-31.982,1.031-12.13-7.785-35.766,9.111-33.606,8.286,2.292,7.026,28.153,6.497,35.352-1.601,21.78-13.061,41.107-34.732,47.557Z"/>
  <path d="M0,296.179v-24.249c11.387-11.612,12.638-32.056,13.918-47.722.463-5.669-4.715-15.936,5.997-16.535,11.489-.643,9.854,11.686,9.621,20.181-.683,24.843-8.782,53.126-29.535,68.324Z"/>
  <path d="M840.457,623.536c-33.949-4.032-7.089-21.825-2.129-37.634,2.49-7.936,1.689-14.915,4.284-22.542,3.886-2.773,9.164-2.744,13.014-.02,6.408,6.4-4.518,36.099-9.862,43.572,7.061,5.597,16.167,8.065,20.687,16.624-8.305-.697-17.899.961-25.994,0Z"/>
  <path d="M216.613,623.536l-12.801-3.661c-12.125-6.632,7.386-23.501,10.672-33.973,2.49-7.936,1.688-14.914,4.284-22.542,3.887-2.773,9.163-2.744,13.014-.02,6.408,6.4-4.517,36.098-9.862,43.572,7.061,5.597,16.166,8.064,20.687,16.624h-25.994Z"/>
  <path d="M651.57,623.536h-34.658c.948-8.548,11.133-6.16,17.05-8.073,14.519-4.696,13.35-32.011,23.782-43.779,4.415-4.98,19.245-15.175,24.179-7.056,5.942,9.777-8.507,13.028-12.773,18.457-7.731,9.839-7.536,30.416-17.58,40.452Z"/>
  <path d="M27.726,623.536H0v-6.928c26.893,2.383,20.784-30.081,33.9-44.925,4.379-4.956,21.449-15.753,24.786-5.876,3.395,10.048-8.766,11.406-13.38,17.277-7.731,9.839-7.536,30.416-17.58,40.452Z"/>
  <path d="M762.476,0c-11.03,12.262-21.796,23.802-12.481,41.053,4.521,8.372,19.349,11.548,12.605,21.866-5.647,8.64-21.346-5.487-25.14-11.069-11.596-17.063-9.299-36.842,4.221-51.85h20.795Z"/>
  <path d="M138.632,0c-11.03,12.262-21.796,23.802-12.481,41.053,4.521,8.372,19.349,11.548,12.605,21.866-5.508,8.427-19.34-4.164-23.364-9.38-13.435-17.415-11.954-37.219,2.445-53.539h20.795Z"/>
  <path d="M1247.688,387.978c-9.611,5.638-20.658,15.97-32.495,9.961-8.159-18.821,17.931-9.658,23.03-27.21,4.643-15.98-16.779-43.219,9.465-55.497v72.746Z"/>
  <path d="M62.384,0C53.326,28.461,28.064,40.199,0,43.301v-17.32c18.995.625,37.52-7.974,45.055-25.981h17.329Z"/>
  <path d="M0,569.842c6.466-19.149,15.155-37.434,39.143-29.607,9.898,17.096-11.442,11.689-16.188,16.189-7.847,7.439-7.055,37.07-22.954,42.863v-29.445Z"/>
  <path d="M140.365,623.536h-22.528c12.262-12.388,21.082-24.041,28.575-39.855,3.848-8.122,4.378-25.501,17.933-12.686,1.688,20.666-13.489,36.606-23.98,52.541Z"/>
  <path d="M764.209,623.536h-22.528c12.262-12.388,21.082-24.041,28.575-39.855,3.848-8.122,4.378-25.501,17.933-12.686,1.688,20.666-13.489,36.606-23.98,52.541Z"/>
  <path d="M532,623.536h-19.062c7.151-10.097,10.69-19.313.949-29.527-5.303-5.562-20.6-7.487-15.727-17.242,4.209-8.425,15.917-2.907,21.597.98,14.793,10.123,20.076,29.725,12.242,45.789Z"/>
  <path d="M1155.844,623.536h-19.062c7.151-10.097,10.69-19.313.949-29.527-5.308-5.566-20.588-7.478-15.728-17.237,3.812-7.655,15.116-3.093,20.562.281,15.419,9.553,21.348,30.297,13.279,46.484Z"/>
  <path d="M1247.688,103.923v17.32c-11.818,6.913-53.833,1.849-53.891-14.717-.055-15.93,15.931-2.757,21.486-.528,12.987,5.213,19.791,1.073,32.405-2.075Z"/>
  <path d="M1247.688,65.818v19.052c-7.932,6.262-17.825,8.744-27.782,6.108-7.42-1.964-29.197-21.822-17.275-27.771,10.475-5.227,13.041,7.68,18.375,11.079,9.564,6.094,18.872-3.806,26.682-8.468Z"/>
  <path d="M1247.688,452.063v15.588c-7.45.266-15.814,1.747-22.902,3.956-7.267,2.265-29.364,18.007-29.266,2.111.085-13.927,40.611-22.157,52.168-21.656Z"/>
  <path d="M0,174.936v-17.32l47.606,1.782,4.54,2.376c2.441,3.063,2.305,7.64,0,10.736-6.16,7.736-41.968-3.892-52.146,2.426Z"/>
  <path d="M445.355,0c-2.658,9.994-4.213,17.997-3.446,28.562.375,5.167,5.689,15.052.552,18.332-18.85,12.034-19.249-38.469-12.702-46.894h15.596Z"/>
  <path d="M1069.199,0c-2.658,9.994-4.213,17.997-3.446,28.562.375,5.167,5.689,15.052.552,18.332-18.85,12.034-19.249-38.469-12.702-46.894h15.596Z"/>
  <path d="M1247.688,538.666c-9.885,3.78-7.394,41.468-22.542,28.607-9.712-8.246,8.884-46.945,22.542-49.391v20.785Z"/>
  <path d="M0,119.511v-17.32c8.39-4.383,12.798-9.726,23.212-8.544,8.036.912,22.416,9.608,17.525,18.938-7.398,10.119-14.447-4.042-20.678-3.526L0,119.511Z"/>
  <path d="M0,315.232c6.679-2.032,26.388-13.54,27.74-.802,1.339,12.616-21.949,11.799-24.865,18.52-4.931,11.367,14.078,39.44-2.875,51.564v-69.282Z"/>
  <path d="M1190.502,0c1.117,10.626-20.403,32.606-28.532,33.02-6.042.307-10.635-3.85-8.31-10.017,2.443-6.479,18.992-13.783,21.246-23.003h15.596Z"/>
  <path d="M566.658,0c1.478,10.831-26.867,41.325-35.553,31.183-9.261-10.813,18.554-20.831,19.957-31.183h15.596Z"/>
  <path d="M951.362,0c10.565,2.13,10.151,16.41.827,17.345-6.592.661-30.566-11.173-35.485-17.345h34.658Z"/>
  <path d="M327.518,0c10.565,2.13,10.151,16.41.827,17.345-6.592.661-30.566-11.173-35.485-17.345h34.658Z"/>
  <path d="M1247.688,27.713v15.588c-7.831.464-14.181,13.825-22.639,7.898-10.798-7.567,13.498-26.237,22.639-23.487Z"/>
  <path d="M1089.994,623.536c3.753-4.839,14.115-16.657,20.025-17.303,11.462-1.252,11.757,12.687,2.503,17.303h-22.528Z"/>
  <path d="M466.15,623.536c3.753-4.839,14.115-16.657,20.025-17.303,11.462-1.252,11.757,12.687,2.503,17.303h-22.528Z"/>
  <path d="M0,498.829v-15.588c27.797-3.927,28.086,21.514,0,15.588Z"/>
  <path d="M97.042,0c-4.085,5.327-3.915,19.487-12.73,18.668-9.193-.855-8.351-12.476-4.599-18.668h17.329Z"/>
  <path d="M720.887,0c-4.085,5.327-3.915,19.487-12.73,18.668-9.193-.855-8.351-12.476-4.599-18.668h17.329Z"/>
  <path d="M244.339,0c2.715,7.596,3.545,14.074-6.119,15.543L220.078,0h24.261Z"/>
  <path d="M868.183,0c2.715,7.593,3.546,14.077-6.119,15.54l-18.141-15.54h24.261Z"/>
  <path d="M649.838,0c-6.402,8.363-32.85,15.521-32.925,0h32.925Z"/>
  <path d="M25.994,0C20.006,7.439,8.925,9.293,0,8.66V0h25.994Z"/>
  <path d="M1247.688,131.635v13.856c-15.717,4.73-15.667-17.755,0-13.856Z"/>
  <path d="M596.118,623.536h-15.596c1.921-8.938,14.404-9.811,15.596,0Z"/>
  <path d="M1219.962,623.536h-15.596c1.921-8.938,14.404-9.811,15.596,0Z"/>
  <path d="M1090.408,238.598c-3.726-3.733-1.591-18.419-2.361-24.477-1.663-13.089-7.697-34.552-22.262-38.371-17.635-4.623-28.745,5.803-44.428,7.66-48.742,5.771-60.514-43.534-115.036-21.45-5.124,2.075-18.897,13.748-22.325,3.148-3.812-11.787,16.476-18.235,25.409-20.85,17.975-5.26,36.772-5.358,54.088,2.099,12.74,5.487,26.752,19.531,40.872,21.497,29.862,4.158,59.366-27.771,86.34,7.238,9.614,12.478,17.207,46.131,12.8,60.978-1.615,5.441-9.597,6.035-13.097,2.528Z"/>
  <path d="M778.486,550.366c-3.726-3.733-1.591-18.419-2.361-24.477-1.663-13.089-7.697-34.552-22.262-38.371-17.373-4.555-27.716,5.315-42.956,7.398-48.94,6.688-59.243-40.018-111.247-22.858-9.419,3.108-19.097,13.496-26.964,6.006-7.691-12.639,23.174-22.034,31.698-23.79,37.119-7.65,44.367,5.383,73.133,19.477,37.618,18.43,62.597-20.055,94.432,6.073,14.951,12.27,24.906,50.217,19.624,68.015-1.615,5.441-9.597,6.035-13.097,2.528Z"/>
  <path d="M466.564,238.598c-3.726-3.733-1.591-18.419-2.361-24.477-1.663-13.089-7.697-34.552-22.262-38.371-17.635-4.623-28.745,5.803-44.428,7.66-48.742,5.771-60.514-43.534-115.036-21.45-5.124,2.075-18.897,13.748-22.325,3.148-3.265-10.097,6.979-13.382,14.198-16.469,20.464-8.751,41.496-11.435,62.741-3.19,13.859,5.379,28.445,20.319,43.43,22.405,29.288,4.076,61.649-28.109,87.079,8.231,8.958,12.801,16.398,45.372,12.061,59.985-1.615,5.441-9.597,6.035-13.097,2.528Z"/>
  <path d="M578.287,192.772c7.602,6.67,11.705,24.925,10.704,34.799-3.187,31.431-40.99,30.104-47.006,44.803-5.89,14.391,13.613,31.355,19.782,45.147,8.453,18.897,13.834,45.052,11.338,65.642-1.028,8.481-6.792,31.576-17.854,18.786-4.904-5.67,1.651-14.42,2.555-21.954,2.426-20.218-5.176-46.622-15.117-64.19-9.259-16.363-22.827-24.713-16.27-46.854,8.134-27.466,58.564-20.246,44.556-57.627-1.822-4.862-7.516-8.391-5.818-14.376,1.31-4.616,8.922-7.868,13.129-4.177Z"/>
  <path d="M1202.131,192.772c10.647,9.341,13.273,32.967,7.757,45.709-8.556,19.764-44.726,22.617-45.487,39.538-.501,11.133,15.954,27.754,21.21,39.504,8.464,18.92,13.822,45.024,11.338,65.642-.979,8.125-7.211,31.355-17.849,18.78-4.892-5.783,1.637-14.34,2.55-21.948,2.426-20.218-5.176-46.621-15.117-64.19-9.259-16.363-22.827-24.713-16.27-46.854,8.134-27.466,58.564-20.246,44.556-57.627-1.822-4.862-7.516-8.391-5.818-14.376,1.31-4.616,8.922-7.868,13.129-4.177Z"/>
  <path d="M696.249,239.454c-1.536-1.491-4.494-2.064-6.609-1.452-11.856,3.411-10.362,43.316-21.507,54.802-6.142,6.33-11.901,3.246-14.789-4.372,13.759-19.142,6.083-57.045,31.928-65.116,14.645-4.574,28.806,6.278,28.501,21.588-.492,24.706-22.696,57.962-25.668,81.727-1.083,8.662,2.993,25.947,1.312,30.747-2.707,7.734-12.292,4.772-15.267-3.227-9.891-26.596,13.335-68.967,20.251-95.705,1.071-4.139,4.837-16.092,1.849-18.993Z"/>
  <path d="M72.415,239.4c-3.651-3.656-9.812.004-12.19,3.534-4.492,6.668-5.696,25.381-8.728,34.569-2.555,7.743-9.835,27.063-19.399,15.146-5.244-6.534,2.672-14.118,4.778-21.1,5.281-17.512,3.342-41.608,24.552-48.231,14.645-4.574,28.806,6.278,28.501,21.588-.492,24.706-22.696,57.962-25.668,81.727-1.083,8.662,2.993,25.947,1.312,30.747-2.707,7.734-12.292,4.772-15.267-3.227-9.895-26.606,13.34-68.959,20.251-95.705,1.079-4.176,4.827-16.076,1.859-19.048Z"/>
  <path d="M406.825,203.061c5.778,5.791,8.151,33.621,7.322,42.006-2.887,29.189-16.874,28.73-30.215,46.011-9.598,12.433-9.307,29.538-24.095,44.333-17.921,17.931-28.747,12.744-48.891,19.549-5.494,1.856-21.287,17.747-23.338,2.596-2.523-18.641,38.954-19.411,49.786-24.658,25.121-12.167,21.85-38.934,36.834-54.982,16.728-17.916,27.473-17.288,24.316-48.4-.738-7.273-7.815-20.053-5.684-24.639,2.473-5.32,10.613-5.174,13.964-1.816Z"/>
  <path d="M1030.67,203.061c5.778,5.791,8.151,33.62,7.322,42.006-3.02,30.528-18.628,29.068-30.882,47.077-9.849,14.475-8.896,29.551-24.735,44.559-17.541,16.62-28.301,11.744-47.583,18.258-5.494,1.856-21.287,17.747-23.338,2.596-2.523-18.641,38.954-19.411,49.786-24.658,25.121-12.167,21.85-38.934,36.834-54.982,16.728-17.916,27.473-17.288,24.316-48.4-.738-7.273-7.815-20.053-5.684-24.639,2.473-5.32,10.613-5.174,13.964-1.816Z"/>
  <path d="M1154.526,378.893c-4.336-4.331.469-29.169-11.653-39.438-10.562-8.947-32.606,2.986-44.25-9.465-15.822-16.919,7.05-37.115,14.204-51.693,6.424-13.09,9.264-27.335,8.429-41.952-.414-7.253-5.125-16.464-.871-21.496l4.063-2.693c14.394-3.341,12.973,32.962,12.123,41.378-.698,6.907-3.392,17.006-5.875,23.573-2.952,7.807-22.079,34.845-21.379,38.749,1.298,7.248,24.607,3.745,32.35,5.752,20.093,5.208,28.929,33.384,26.381,51.736-1.052,7.579-8.364,10.704-13.523,5.551Z"/>
  <path d="M530.682,378.893c-4.336-4.331.469-29.169-11.653-39.438-10.561-8.947-32.606,2.986-44.25-9.465-16.039-17.151,7.771-37.922,14.841-52.789,6.131-12.893,8.931-28.31,7.794-42.582-.542-6.799-7.731-19.654,2.553-21.614,5.285-1.007,7.447-.329,9.663,4.209,7.054,14.448,2.892,44.902-2.776,59.892-2.952,7.807-22.079,34.845-21.379,38.749,1.298,7.248,24.607,3.745,32.35,5.752,20.092,5.208,28.929,33.383,26.381,51.736-1.052,7.579-8.364,10.704-13.523,5.551Z"/>
  <path d="M774.116,233.306c-6.914,5.762-15.843.147-13.04-8.578,17.988-30.25,23.644-70.684,62.434-81.452,12.236-3.397,25.004-1.543,35.994-5.592,7.473-2.753,14.998-10.45,22.018-14.366,6.541-3.648,29.056-16.069,34.343-7.293,7.189,11.933-14.452,14.53-21.757,18.14-8.912,4.404-15.941,12.075-25.313,16.268-27.289,12.211-48.315-2.004-68.53,30.23-6.719,10.713-19.604,47.189-26.148,52.643Z"/>
  <path d="M150.272,233.306c-6.914,5.762-15.843.147-13.04-8.578,17.988-30.25,23.644-70.684,62.434-81.452,12.236-3.397,25.004-1.543,35.994-5.592,7.452-2.746,15.011-10.432,22.018-14.366,6.984-3.921,37.946-19.835,35.227-1.299-1.031,7.028-16.163,8.945-22.641,12.146-8.912,4.404-15.941,12.075-25.313,16.268-27.289,12.21-48.315-2.004-68.53,30.23-6.719,10.713-19.604,47.189-26.148,52.643Z"/>
  <path d="M566.91,272.171c.884-1.392,19.91-5.642,28.185-15.985,24.379-30.471-10.827-60.354,12.249-88.216,10.886-13.144,24.104-10.943,39.877-10.336,4.163.16,26.442,2.123,27.904,3.279,4.297,3.398,3.271,12.045-2.242,13.674-19.92,5.887-58.803-17.141-57.792,20.334.712,26.408,12.867,35.909-3.087,64.309-7.647,13.613-27.813,30.489-43.648,23.996-2.074-1.918-2.66-9.141-1.445-11.054Z"/>
  <path d="M181.523,296.612c8.79,8.69-10.981,18.224-15.177,24.671-15.16,23.293,29.133,47.806,13.56,79.369-7.874,15.959-31.793,27.518-49.064,27.304-7.046-.087-30.531-2.782-30.506-11.39.041-14.466,23.658-4.309,32.048-4.519,12.54-.314,33.065-10.242,34.949-23.981,2.218-16.175-23.273-35.982-19.878-61.432,1.5-11.239,23.648-40.324,34.068-30.023Z"/>
  <path d="M805.367,296.612c8.79,8.69-10.981,18.224-15.177,24.671-15.16,23.293,29.133,47.806,13.56,79.369-7.874,15.959-31.793,27.518-49.064,27.304-7.046-.087-30.531-2.782-30.506-11.39.041-14.466,23.658-4.309,32.048-4.519,13.356-.334,36.863-12.13,35.351-27.986-1.73-18.148-23.746-31.441-20.279-57.427,1.5-11.239,23.648-40.324,34.068-30.023Z"/>
  <path d="M1077.367,334.582c6.303-1.885,19.711,10.395,23.761,15.421,16.654,20.668,7.516,49.928-16.878,59.079-22.793,8.551-40.284-1.204-54.855-18.558-5.732-6.827-16.349-29.278-23.571-30.286-5.719-.798-11.293,4.18-14.226-6.308.925-9.059,10.001-10.284,17.696-9.151,21.169,3.117,27.528,43.744,51.538,50.687,20.329,5.878,41.801-14.011,28.872-34.046-4.986-7.727-18.497-10.881-16.791-22.43.529-1.919,2.545-3.838,4.453-4.409Z"/>
  <path d="M141.601,22.815c6.071-1.816,20.009,10.48,23.797,15.384,12.895,16.695,11.021,39.702-5.928,52.776-23.628,18.226-48.405,8.548-65.842-12.219-5.732-6.827-16.349-29.278-23.571-30.286-5.719-.798-11.293,4.18-14.226-6.308.925-9.059,10.001-10.284,17.696-9.151,23.824,3.507,29.437,55.011,62.017,51.446,17.495-1.914,28.61-18.973,18.393-34.805-4.986-7.727-18.497-10.881-16.791-22.43.529-1.919,2.545-3.838,4.453-4.409Z"/>
  <path d="M453.519,334.581c6.107-1.813,17.976,8.928,22.061,13.66,18.131,21.005,10.776,51.104-15.175,60.841-22.498,8.441-40.457-1.41-54.855-18.558-5.732-6.827-16.349-29.278-23.571-30.286-5.719-.798-11.293,4.18-14.226-6.308.925-9.059,10.001-10.284,17.696-9.151,21.169,3.117,27.528,43.744,51.538,50.687,20.943,6.056,42.754-15.446,28.193-35.099-4.959-6.693-19.159-10.991-16.063-21.388.586-1.97,2.43-3.814,4.401-4.399Z"/>
  <path d="M765.445,22.815c6.071-1.816,20.009,10.48,23.797,15.384,16.232,21.016,7.794,49.845-16.915,59.116-22.498,8.441-40.457-1.41-54.855-18.558-5.732-6.827-16.349-29.278-23.571-30.286-5.719-.798-11.293,4.18-14.226-6.308.925-9.059,10.001-10.284,17.696-9.151,21.169,3.117,27.528,43.744,51.538,50.687,20.329,5.878,41.801-14.011,28.872-34.046-4.986-7.727-18.497-10.881-16.791-22.43.529-1.919,2.545-3.838,4.453-4.409Z"/>
  <path d="M543.859,470.823c-25.54,3.227-6.931-23.237,1.967-31.788,28.43-27.324,91.387-19.918,96.888-64.24.947-7.626-2.531-31.756.62-34.89,2.269-2.257,8.331-3.127,10.987-.588,8.56,6.697,3.688,45.028-.685,55.056-19.675,45.121-93.051,27.342-109.778,76.45Z"/>
  <path d="M946.769,234.428c11.278-12.273,38.696-9.764,28.978,5.172-2.785,4.28-13.28,1.558-17.022,5.062-8.898,8.334-4.952,36.728-26.018,44.121-32.095,11.263-42.49-28.867-58.441-46.314-4.833-5.286-12.252-10.751-18.318-14.6-7.79-4.943-19.034-3.445-12.046-17.469,7.43-8.475,35.679,14.581,41.599,20.839,10.208,10.789,22.356,41.787,36.176,43.271,15.783,1.695,15.774-29.943,25.092-40.082Z"/>
  <path d="M636.573,544.464c8.709-7.826,34.534-10.354,27.712,5.922-2.416,5.765-13.534,2.291-17.486,6.038-9.085,8.612-4.949,35.261-24.687,43.727-32.003,13.725-43.925-28.831-59.768-45.913-4.029-4.344-9.297-8.487-14.215-11.773-8.735-5.834-23.775-6.791-16.148-20.297,7.049-8.04,34.102,13.084,39.96,19.014,10.106,10.231,23.881,42.435,35.563,44.173,20.845,3.1,15.879-29.036,29.071-40.89Z"/>
  <path d="M322.93,234.433c10.968-11.692,38.903-10.095,28.972,5.167-2.763,4.247-13.378,1.596-17.026,5.057-9.412,8.926-4.778,36.674-26.014,44.126-31.992,11.227-42.607-28.995-58.441-46.314-4.833-5.286-12.252-10.751-18.318-14.6-7.79-4.943-19.034-3.445-12.046-17.469,7.43-8.475,35.679,14.581,41.599,20.839,10.208,10.789,22.356,41.787,36.176,43.271,15.882,1.706,15.69-30.049,25.097-40.078Z"/>
  <path d="M894.586,306.99c3.824-2.433,8.634-3.43,11.881.293,6.344,8.191-3.976,31.369-9.841,38.976-4.981,6.46-21.016,16.377-22.491,20.823-3.115,9.388,1.276,19.524.85,28.41-.863,18.011-12.66,39.895-32.084,42.561-9.134,1.254-44.333,3.269-42.35-10.998,1.523-10.951,26.832-2.483,37.22-4.413,10.753-1.998,15.748-7.029,19.128-17.36,4.753-14.527-2.367-29.748,1.675-43.363,3.315-11.166,19.871-17.044,26.646-27.06,5.979-8.838,6.463-18.061,9.364-27.87Z"/>
  <path d="M270.742,306.99c3.824-2.433,8.634-3.43,11.881.293,6.344,8.191-3.976,31.369-9.841,38.976-4.981,6.46-21.016,16.377-22.491,20.823-3.115,9.388,1.276,19.524.85,28.41-.863,18.011-12.66,39.895-32.084,42.561-9.134,1.254-44.333,3.269-42.35-10.998,1.574-11.319,23.654-2.946,31.824-3.349,12.721-.627,20.621-6.378,24.52-18.42,4.532-13.997-2.293-29.985,1.679-43.366,3.315-11.166,19.871-17.044,26.646-27.06,5.979-8.838,6.463-18.061,9.364-27.87Z"/>
  <path d="M1125.08,357.226c2.317-2.304,8.369-3.073,11.005-.604,12.308,27.82-1.743,62.05-27.607,76.677-11.744,6.642-24.422,8.085-36.033,15.946-7.25,4.908-11.612,11.437-18.026,16.624-7.007,5.666-40.206,28.546-42.025,9.316-.741-7.837,16.108-10.82,22.703-14.772,11.716-7.023,20.049-19.821,32.117-26.788,23.558-13.602,50.579-11.725,56.669-47.282,1.329-7.76-2.005-25.932,1.198-29.116Z"/>
  <path d="M501.236,357.226c2.317-2.304,8.369-3.073,11.005-.604,12.308,27.82-1.743,62.05-27.607,76.677-11.744,6.642-24.422,8.085-36.033,15.946-7.25,4.908-11.612,11.437-18.026,16.624-7.007,5.666-40.206,28.546-42.025,9.316-.741-7.837,16.108-10.82,22.703-14.772,11.716-7.023,20.049-19.821,32.117-26.788,23.558-13.602,50.579-11.725,56.669-47.282,1.329-7.76-2.005-25.932,1.198-29.116Z"/>
  <path d="M813.158,45.458c2.317-2.304,8.369-3.073,11.005-.604,12.308,27.82-1.743,62.05-27.607,76.677-11.744,6.642-24.422,8.085-36.033,15.946-7.25,4.908-11.612,11.437-18.026,16.624-7.007,5.666-40.206,28.546-42.025,9.316-.731-7.729,16.063-10.907,22.667-14.808,12.129-7.164,19.911-19.685,32.152-26.753,23.688-13.677,51.75-12.315,56.984-48.693,1.065-7.399-2.516-24.325.883-27.705Z"/>
  <path d="M189.314,45.458c2.317-2.304,8.369-3.073,11.005-.604,12.308,27.82-1.743,62.05-27.607,76.677-11.744,6.642-24.422,8.085-36.033,15.946-7.25,4.908-11.612,11.437-18.026,16.624-7.007,5.666-40.206,28.546-42.025,9.316-.731-7.729,16.063-10.907,22.667-14.808,11.481-6.781,18.811-18.321,30.114-25.326,23.83-14.77,53.675-12.956,59.023-50.12,1.065-7.399-2.516-24.325.883-27.705Z"/>
  <path d="M587.856,363.318c-4.464-17.298-11.024-36.055-5.202-53.749,5.415-16.459,20.622-17.25,32.373-26.532,22.575-17.83,20.988-46.404,22.95-72.275l2.566-2.689c14.414-3.228,13.147,9.456,12.826,19.771-.798,25.627-9.701,55.302-32.081,70.11-16.062,10.628-27.275,7.135-25.146,31.993.953,11.132,15.31,42.372-8.285,33.371Z"/>
  <path d="M212.69,404.83c-3.977,3.758-11.952.275-13.181-4.23-1.061-3.891,2.541-14.588.739-23.117-2.608-12.345-16.056-24.193-16.399-37.302-.62-23.667,37.923-34.576,18.918-57.01-5.301-6.257-21.44-8.376-16.531-18.167,7.775-15.507,35.036,9.604,37.148,25.258,3.683,27.304-20.855,31.962-22.497,46.556-1.381,12.284,7.974,18.111,12.068,27.967,3.666,8.825,6.875,33.297-.266,40.045Z"/>
  <path d="M836.534,404.83c-3.977,3.758-11.951.275-13.181-4.23-.853-3.123,1.646-9.086,1.644-13.458-.01-25.064-27.072-37.292-12.633-62.748,7.301-12.871,30.332-22.235,14.247-41.222-5.301-6.257-21.44-8.376-16.531-18.167,7.775-15.507,35.036,9.604,37.148,25.258,3.683,27.304-20.855,31.962-22.497,46.556-1.381,12.284,7.974,18.111,12.068,27.967,3.666,8.825,6.875,33.297-.266,40.045Z"/>
  <path d="M118.246,358.11c-.526-.619-3.539-11.056-3.734-12.713-6.298-53.316,37.366-73.604,58.568-114.38,3.214-6.182,3.114-18.183,11.461-17.776,15.9.774,3.475,23.079-.557,30.408-18.638,33.887-57.678,54.869-53.88,98.286.463,5.295,4.872,8.548,2.087,14.398-2.51,5.273-11.114,5.11-13.946,1.778Z"/>
  <path d="M742.09,358.11c-.526-.619-3.539-11.056-3.734-12.713-6.298-53.316,37.366-73.604,58.568-114.38,3.214-6.182,3.114-18.183,11.461-17.776,15.9.774,3.475,23.079-.557,30.408-13.984,25.425-50.958,54.485-54.024,82.828-.826,7.637,3.513,27.077,2.248,29.829-2.448,5.324-11.145,5.119-13.961,1.805Z"/>
  <path d="M430.905,487.096c4.109-.38,8.054,3.834,8.875,7.673.848,9.156-31.511,20.316-39.493,22.232-23.546,5.654-70.645.606-64.008,39.77,1.01,5.962,6.881,8.3,4.814,15.298-17.032,16.267-22.177-15.874-20.354-28.922,5.847-41.836,51.343-34.335,79.219-42.064,8.006-2.22,26.393-13.565,30.948-13.987Z"/>
  <path d="M1054.749,487.096c4.171-.386,9.256,4.638,8.873,8.863-.756,8.325-32.703,19.574-40.848,21.419-23.653,5.358-69.018.504-62.634,39.376.915,5.571,11.43,18.3-1.087,20.063-13.873,1.954-15.8-24.163-14.471-33.669,5.847-41.836,51.343-34.335,79.219-42.064,8.006-2.22,26.393-13.565,30.948-13.987Z"/>
  <path d="M1047.104,190.957c9.697-9.583,16.183,7.437,18.649,14.271,8.583,23.784,8.167,57.087-6.555,78.358-6.777,9.792-19.25,17.501-25.411,26.563-4.24,6.237-5.461,21.054-13.708,20.288-11.154-1.037-6.637-15.633-3.737-22.135,6.333-14.203,21.012-20.333,29.314-33.056,9.796-15.012,11.576-31.295,9.494-49.026-1.223-10.417-8.71-21.081-9.892-28.302-.347-2.123.342-5.473,1.847-6.96Z"/>
  <path d="M423.26,190.957c9.697-9.583,16.183,7.437,18.649,14.271,8.583,23.784,8.167,57.087-6.555,78.358-6.777,9.792-19.25,17.501-25.411,26.563-4.24,6.237-5.461,21.054-13.708,20.288-11.154-1.037-6.637-15.633-3.737-22.135,6.333-14.203,21.012-20.333,29.314-33.056,9.796-15.012,11.576-31.295,9.494-49.026-1.223-10.417-8.71-21.081-9.892-28.302-.347-2.123.342-5.473,1.847-6.96Z"/>
  <path d="M814.896,202.218c-8.046-8.139,6.297-19.627,13.365-23.017,8.784-4.213,18.536-5.861,28.266-3.874,8.864,1.811,18.209,12.85,28.138,13.571,10.61.771,16.035-7.566,24.737-11.734,9.438-4.52,45.855-12.445,47.239,2.192,1.131,11.964-16.724,7.196-23.455,7.741-23.698,1.918-30.275,22.128-56.437,16.517-14.986-3.214-24.369-22.115-43.871-9.405-4.288,2.795-10.244,15.837-17.983,8.009Z"/>
  <path d="M191.052,202.218c-8.046-8.139,6.297-19.627,13.365-23.017,8.784-4.213,18.536-5.861,28.266-3.874,8.864,1.811,18.209,12.85,28.138,13.571,10.61.771,16.035-7.566,24.737-11.734,9.438-4.52,45.855-12.445,47.239,2.192,1.155,12.214-18.218,7.09-25.194,7.732-22.37,2.06-28.137,22.222-54.698,16.525-15.11-3.241-23.425-21.516-42.725-9.993-5.067,3.026-11.47,16.344-19.129,8.597Z"/>
  <path d="M502.973,513.985c-8.073-8.168,7.365-20.38,14.519-23.596,8.345-3.75,17.995-5.157,27.113-3.294,8.864,1.811,18.209,12.85,28.138,13.571,10.61.771,16.035-7.566,24.737-11.734,9.438-4.52,45.855-12.445,47.239,2.192,1.166,12.33-20.99,6.909-29.621,8.488-19.968,3.653-24.475,21.303-50.272,15.77-15.11-3.241-23.425-21.516-42.725-9.993-5.067,3.025-11.471,16.345-19.13,8.596Z"/>
  <path d="M236.099,493.219c-2.735-2.734-3.061-9.309.288-11.877,3.304-2.534,13.037-1.19,19.9-4.348,13.663-6.286,20.264-26.139,37.626-26.525,16.114-.358,27.147,21.938,46.597,24.116,8.079.905,28.902-3.981,30.369,6.155,2.025,13.986-28.1,11.113-36.818,8.952-17.566-4.355-21.926-14.088-34.436-21.045-11.974-6.659-17.9,8.731-25.809,15.477-7.419,6.328-29.435,17.374-37.717,9.096Z"/>
  <path d="M859.943,493.219c-2.735-2.734-3.061-9.309.288-11.877,3.304-2.534,13.037-1.19,19.9-4.348,13.663-6.286,20.264-26.139,37.626-26.525,16.114-.358,27.147,21.938,46.597,24.116,8.072.904,28.911-3.979,30.369,6.155,2.149,14.931-31.735,10.707-40.852,7.786-10.663-3.417-31.826-22.049-36.319-21.887-7.978.287-14.228,12.503-19.893,17.483-7.313,6.429-29.533,17.275-37.716,9.097Z"/>
  <path d="M71.053,450.311c13.876,2.044,23.803-8.637,39.199-10.159,20.461-2.023,49.796,5.071,59.205,24.632-6.742,17.641-17.042.33-27.892-4.394-13.542-5.895-25.188-6.294-39.327-2.268-13.518,3.849-21.938,14.327-37.332,6.141-19.039-10.126-3.06-32.641,7.791-42.582,4.643-4.254,9.835-5.671,14.097-.023,5.933,7.862-13.963,20.267-15.742,28.653Z"/>
  <path d="M694.897,450.311c13.876,2.044,23.803-8.637,39.199-10.159,20.461-2.023,49.796,5.071,59.205,24.632-6.742,17.641-17.042.33-27.892-4.394-13.542-5.895-25.188-6.294-39.327-2.268-13.518,3.849-21.938,14.327-37.332,6.141-23.626-12.565,8.1-47.121,15.397-46.474,4.191.372,8.916,6.335,7.837,10.532-.6,2.335-18.959,19.651-17.087,21.99Z"/>
  <path d="M269.883,87.018c34.197-5.371,43.949,16.346,69.896,31.485,3.799,5.168,1.689,11.908-4.869,12.841-11.473,1.632-33.468-27.179-49.797-29.186-18.415-2.264-26.391,8.185-41.326,14.204-8.453,3.407-37.735,11.658-37.735-2.911,0-11.837,17.162-6.421,25.862-8.956,11.564-3.368,24.124-15.301,37.97-17.476Z"/>
  <path d="M893.727,87.018c33.749-5.3,44.212,16.461,69.896,31.485,2.062,2.577,2.516,6.811.764,9.689-7.531,12.367-34.468-16.173-41.927-20.494-28.713-16.631-41.168,7.045-66.344,12.726-7.4,1.67-26.224,4.413-26.219-6.975.005-11.839,17.157-6.42,25.861-8.955,11.564-3.368,24.123-15.301,37.97-17.476Z"/>
  <path d="M386.005,413.528c-9.819,9.916-17.213-14.177-24.655-20.395-31.214-26.083-45.78,13.248-72.847,10.487-10.39-1.06-33.612-21.384-21.657-28.66,9.733-5.923,14.293,8.798,18.55,11.375,11.009,6.664,26.394-10.644,37.277-14.457,15.954-5.59,32.588-3.066,46.325,6.682,6.988,4.959,25.056,26.839,17.006,34.968Z"/>
  <path d="M697.927,101.76c-14.004,7.098-14.214-11.671-24.655-20.395-31.214-26.083-45.78,13.248-72.847,10.487-10.39-1.06-33.611-21.383-21.657-28.66,9.519-5.794,13.56,8.009,18.394,11.094,11.226,7.164,26.327-10.284,37.434-14.176,15.939-5.585,32.603-3.07,46.325,6.682,7.243,5.148,25.251,26.64,17.006,34.968Z"/>
  <path d="M1009.849,413.528c-9.819,9.916-17.213-14.177-24.655-20.395-31.214-26.083-45.78,13.248-72.847,10.487-10.39-1.06-33.611-21.383-21.657-28.66,9.519-5.794,13.56,8.009,18.394,11.094,11.226,7.164,26.327-10.284,37.434-14.176,15.954-5.59,32.588-3.066,46.325,6.682,6.988,4.959,25.056,26.839,17.006,34.968Z"/>
  <path d="M1073.967,375.421c-9.094,9.204-26.174-12.935-29.135-21.113-11.958-33.019,16.19-45.178,30.295-68.659,2.643-4.399,4.852-9.103,7.052-13.736,2.595-5.466,2.751-18.274,11.727-17.062,12.051,1.627,4.602,19.835,1.597,26.916-2.79,6.575-7.504,13.678-11.723,19.46-11.196,15.345-32.985,28.545-22.478,50.477,3.904,8.149,21.584,14.691,12.665,23.718Z"/>
  <path d="M450.123,375.421c-9.094,9.204-26.174-12.935-29.135-21.113-11.956-33.014,15.008-43.926,29.285-66.205,6.541-10.207,8.513-22.447,14.926-31.905,2.545-2.847,8.875-.821,10.493,1.861,5.752,9.538-9.709,34.951-15.747,43.176-11.197,15.253-33.008,28.508-22.487,50.468,3.904,8.149,21.584,14.691,12.665,23.718Z"/>
  <path d="M823.559,234.258c2.544-1.747,5.57-2.607,8.645-1.848,2.661.657,21.584,12.802,24.673,15.313,23.927,19.458,34.584,54.119,14.768,80.495-4.421,5.884-20.407,20.636-27.795,15.662-11.35-7.641,13.828-21.97,17.758-29.158,10.969-20.063.514-42.562-16.103-55.631-8.61-6.772-29.589-11.798-21.946-24.833Z"/>
  <path d="M199.715,234.258c2.544-1.746,5.57-2.608,8.645-1.848,3.056.755,22.251,13.314,25.601,16.118,22.584,18.903,32.399,50.196,15.912,76.566-4,6.398-22.05,24.151-29.87,18.808-11.314-7.729,13.55-21.978,17.154-28.054,11.968-20.179,1.457-43.42-15.496-56.757-8.595-6.761-29.594-11.803-21.946-24.833Z"/>
  <path d="M1125.954,476.744c9.793,9.91-9.746,16.032-14.979,21.404-10.252,10.526-8.962,25.592-13.26,38.708-4.158,12.688-12.444,24.231-22.502,32.935-5.773,4.996-33.925,26.784-33.908,7.842.006-7.029,18.242-15.022,24.445-20.765,24.107-22.321,15.135-48.31,31.433-67.309,4.421-5.153,22.303-19.36,28.77-12.816Z"/>
  <path d="M502.11,476.744c9.793,9.91-9.746,16.032-14.979,21.404-10.252,10.526-8.962,25.593-13.26,38.708-4.158,12.688-12.444,24.231-22.502,32.935-5.773,4.996-33.925,26.784-33.908,7.842.006-7.029,18.242-15.022,24.445-20.765,20.697-19.163,15.501-33.36,24.176-55.51,3.545-9.052,27.001-33.749,36.028-24.614Z"/>
  <path d="M1212.451,140.58c6.309-2.191,12.284.497,11.97,7.539-.444,9.968-23.911,28.31-32.737,32.329-10.566,4.812-46.84,6.347-30.683,24.842,5.041,5.77,27.403,6.82,17.531,19.177-8.494,10.632-45.219-12.078-36.013-36.01,6.842-17.785,22.28-15.329,36.785-20.383,7.651-2.666,17.804-8.861,23.404-14.713,2.912-3.043,7.192-11.896,9.742-12.782Z"/>
  <path d="M588.607,140.58c6.309-2.191,12.284.497,11.97,7.539-.453,10.179-22.932,27.26-31.823,31.511-8.025,3.837-32.856,7.48-34.745,13.856-5.72,19.307,32.978,15.586,20.679,30.981-8.494,10.632-45.219-12.078-36.013-36.01,6.842-17.785,22.28-15.329,36.785-20.383,7.651-2.666,17.804-8.861,23.404-14.713,2.912-3.043,7.192-11.896,9.742-12.782Z"/>
  <path d="M373.707,204.984c6.013,5.591,16.443,27.853,7.557,33.199-18.695,4.997-7.746-19.854-24.777-25.501-19.486-6.46-45.264,5.58-51.589,25.38-1.968,6.161-1.105,20.444-10.889,19.619-12.015-1.013-5.237-24.559-1.447-31.949,13.324-25.981,58.18-42.101,81.146-20.749Z"/>
  <path d="M997.551,204.984c6.013,5.591,16.443,27.853,7.557,33.199-18.695,4.997-7.746-19.854-24.777-25.501-20.814-6.9-45.185,6.119-52.045,26.657-2.883,8.629-.732,24.029-15.934,15.296-11.057-42.423,55.045-77.687,85.2-49.651Z"/>
  <path d="M213.575,546.901c-4.388-4.363-.067-11.107-.361-15.944-1.302-21.436-21.941-46.87-6.99-65.894,8.035-10.224,18.892-9.263,28.936-14.379,6.888-3.508,14.087-14.851,21.883-12.242,11.729,8.502-3.667,19.747-11.497,24.354-7.24,4.26-26.544,7.932-28.561,14.741-3.266,11.025,12.84,38.538,11.846,56.844-.471,8.68-6.515,21.211-15.256,12.52Z"/>
  <path d="M837.419,546.901c-4.388-4.363-.067-11.107-.361-15.944-1.302-21.436-21.941-46.87-6.99-65.894,8.035-10.224,18.892-9.263,28.936-14.379,6.888-3.508,14.087-14.851,21.883-12.242,11.729,8.502-3.667,19.747-11.497,24.354-7.24,4.26-26.544,7.932-28.561,14.741-3.115,10.515,12.566,39.145,11.878,56.812-.305,7.829-6.274,21.513-15.288,12.552Z"/>
  <path d="M675.24,528.864c-15.977-16.877-52.971.764-59.249,21.871-1.672,5.622.473,17.974-8.576,18.397-14.743.688-6.146-25.843-1.656-33.819,15.327-27.224,65.104-41.188,84.686-12.12,3.793,5.63,9.967,22.427,2.74,26.759-15.755,5.237-10.56-13.285-17.946-21.087Z"/>
  <path d="M372.141,145.062c-7.412,7.457-14.274-2.627-15.156-10.832-2.981-27.709,10.955-26.988,17.695-44.644,5.389-14.116-6.105-20.919-11.08-32.986-3.664-8.887-11.02-36.833,2.886-37.712,12.822-.81,6.905,13.526,8.613,22.772,3.578,19.368,22.54,26.796,15.186,51.387-2.859,9.561-15.564,19.944-17.337,27.689-1.743,7.612,3.448,20.046-.807,24.327Z"/>
  <path d="M995.985,145.062c-9.242,9.299-14.685-6.046-15.217-14.224-1.7-26.127,18.124-32.191,19.224-46.851.8-10.661-15.417-27.101-17.246-43.465-1.387-12.416-.095-28.854,15.161-18.629.539,6.777-.198,12.93,1.029,19.757,3.474,19.335,22.575,26.714,15.193,51.396-2.86,9.561-15.564,19.944-17.337,27.689-1.743,7.612,3.448,20.045-.807,24.327Z"/>
  <path d="M868.611,550.372c-4.902-4.853-1.546-12.21,5.728-13.27,11.685-1.702,22.491,1.216,32.487,7.106,22.221,13.093,21.086,41.384,48.319,50.432,5.022,1.669,10.737.436,15.321,3.732,9.482,20.438-19.473,13.126-30.06,7.536-23.833-12.584-26.884-44.189-47.553-51.197-6.412-2.174-21.395-1.521-24.242-4.339Z"/>
  <path d="M244.767,550.372c-4.902-4.853-1.546-12.21,5.728-13.27,11.685-1.702,22.491,1.216,32.487,7.106,22.221,13.093,21.086,41.384,48.319,50.432,5.022,1.669,10.737.436,15.321,3.732,9.482,20.438-19.473,13.126-30.06,7.536-23.833-12.584-26.884-44.189-47.553-51.197-6.412-2.174-21.395-1.521-24.242-4.339Z"/>
  <path d="M768.949,152.643c4.906-.688,10.152,4.862,8.43,10.198-2.544,7.88-20.055,24.079-27.602,27.981-21.152,10.937-43.541,6.079-63.921,12.321-7.826,2.397-17.118,14.104-22.663,2.475-3.391-7.114,6.204-12.652,11.729-15.134,20.62-9.265,47.768-3.102,68.583-14.589,8.508-4.695,20.111-22.503,25.443-23.251Z"/>
  <path d="M145.105,152.643c3.155-.443,7.091,2.321,8.308,5.044,3.995,8.943-21.852,30.841-29.7,34.38-20.254,9.133-42.481,5.189-61.701,11.075-7.826,2.397-17.118,14.104-22.663,2.475-3.391-7.114,6.204-12.652,11.729-15.134,20.62-9.265,47.768-3.102,68.583-14.589,8.509-4.696,20.109-22.502,25.443-23.251Z"/>
  <path d="M358.283,83.556c4.904,4.856,1.543,12.208-5.73,13.271-35.594,5.203-44.696-32.928-76.776-26.422-8.651,1.754-23.737,12.144-30.655,7.657-14.347-9.306,8.472-16.812,15.648-19.203,19.341-6.446,29.597-8.749,48.205,2.111,8.432,4.921,18.919,16.289,27.67,19.109,6.244,2.012,18.251.124,21.638,3.478Z"/>
  <path d="M982.127,83.556c2.62,2.594,2.562,9.74-.736,11.846-8.923,5.696-26.116-.398-34.649-5.047-17.609-9.596-23.432-24.754-47.12-19.95-8.651,1.754-23.737,12.144-30.655,7.657-14.347-9.306,8.472-16.812,15.648-19.203,18.371-6.123,29.243-8.831,47.151,1.432,8.571,4.912,19.725,16.887,28.724,19.787,6.245,2.012,18.251.124,21.638,3.478Z"/>
  <path d="M1162.349,400.527c8.092,8.063-12.916,42.177-20.331,48.975-13.495,12.37-32.376,12.979-46.319,21.254-6.437,3.821-13.463,16.704-22.204,9.041-6.466-5.669,4.165-15.658,8.704-19.07,20.02-15.047,43.445-9.241,58.38-35.179,4.213-7.317,9.758-36.99,21.77-25.021Z"/>
  <path d="M538.505,400.527c6.036,6.009-5.448,27.573-9.244,34.076-17.183,29.438-33.867,21.976-57.41,36.149-5.962,3.589-14.173,16.183-22.201,9.045-6.431-5.718,4.133-15.634,8.705-19.07,20.02-15.047,43.445-9.241,58.38-35.179,4.216-7.322,9.753-36.984,21.77-25.021Z"/>
  <path d="M1017.74,134.601c-3.685-4.365-2.035-12.524,3.858-13.448,5.853-.917,13.928,5.916,20.893,6.866,20.646,2.817,36.978-4.481,56.752,9.094,7.349,5.045,32.813,34.642,17.245,39.257-10.505,3.114-12.489-11.404-18.678-18.772-21.785-25.936-64.23-4.234-80.07-22.997Z"/>
  <path d="M393.896,134.601c-3.685-4.365-2.035-12.524,3.858-13.448,5.853-.917,13.928,5.916,20.893,6.866,20.646,2.817,36.978-4.481,56.752,9.094,7.349,5.045,32.813,34.642,17.245,39.257-10.505,3.114-12.489-11.404-18.678-18.772-21.785-25.936-64.23-4.234-80.07-22.997Z"/>
  <path d="M649.376,321.721c-4.019,4.114-20.574,6.427-22.657,11.229-5.518,12.721,14.304,33.188-3.142,53.896-6.554,7.779-34.997,21.869-34.192,5.479.501-10.206,12.536-7.277,19.285-12.966,17.192-14.495-8.388-37.835,6.752-57.821,4.108-5.423,27.302-15.699,32.698-12.402,3.474,2.123,4.296,9.475,1.256,12.586Z"/>
  <path d="M1053.102,525.123c7.143-2.142,12.487,3.468,10.052,9.958-5.569,14.846-32.899,19.18-35.165,29.066-3.424,14.936,19.549,44.452,9.323,52.621-11.049,8.826-12.505-6.336-14.399-11.92-5.31-15.654-14.269-27.804-10.154-45.518,3.317-14.281,19.81-18.127,30.336-25.105,3.347-2.219,6.796-8.138,10.007-9.101Z"/>
  <path d="M429.258,525.123c7.143-2.142,12.487,3.468,10.052,9.958-5.569,14.846-32.899,19.18-35.165,29.066-3.191,13.918,20.217,47.368,8.297,53.345-11.601,5.816-11.237-6.352-13.372-12.644-7.194-21.196-21.852-41.039.406-59.212,6.301-5.145,13.436-7.209,19.776-11.41,3.347-2.218,6.795-8.138,10.007-9.101Z"/>
  <path d="M346.17,43.701c6.564,6.358.61,14.068-9.065,13.526-24.661-1.383-33.202-28.185-70.593-18.609-6.486,1.661-24.076,12.928-24.084-1.369-.007-13.069,34.667-17.161,44.344-16.429,18.138,1.373,27.872,10.536,43.037,17.593,4.122,1.918,14.536,3.521,16.36,5.288Z"/>
  <path d="M970.014,43.701c6.564,6.358.61,14.068-9.065,13.526-24.661-1.383-33.202-28.185-70.593-18.609-6.486,1.661-24.076,12.928-24.084-1.369-.007-13.069,34.667-17.161,44.344-16.429,18.138,1.373,27.872,10.536,43.037,17.593,4.122,1.918,14.536,3.521,16.36,5.288Z"/>
  <path d="M112.118,208.142c16.861-5.117,7.216,17.703,7.315,24.814.091,6.529,3.195,14.247,3.573,20.816,1.029,17.885-7.596,26.178-14.214,41.161-2.428,5.497-.505,13.245-9.099,15.05-21.593-7.53,5.234-34.838,7.332-47.989,1.736-10.887-10.093-49.243,5.093-53.852Z"/>
  <path d="M735.962,208.142c16.861-5.117,7.216,17.703,7.315,24.814.091,6.529,3.195,14.247,3.573,20.816,1.029,17.885-7.596,26.178-14.214,41.161-2.428,5.497-.505,13.245-9.099,15.05-21.697-8.02,5.13-34.292,7.332-47.989,1.749-10.881-10.103-49.24,5.093-53.852Z"/>
  <path d="M327.055,405.681c12.35-2.534,36.551,9.673,21.748,21.886-7.143,1.967-11.691-6.776-16.963-6.618-2.338.07-14.848,9.261-19.959,11.155-6.151,2.279-16.765,4.776-23.292,4.401-9.477-.545-38.817-10.81-28.808-23.57,5.499-7.01,14.905,3.062,20.99,5.308,23.901,8.825,30.654-9.356,46.284-12.562Z"/>
  <path d="M950.899,405.683c19.73-4.048,35.505,18.096,21.748,21.884-6.379,2.336-11.779-6.773-16.963-6.618-2.338.07-14.848,9.261-19.959,11.155-15.189,5.629-40.172,6.168-51.208-7.617-4.732-5.911-2.855-13.926,5.343-13.867,6.151.044,14.786,11.314,28.936,9.895,12.635-1.267,22.891-12.943,32.103-14.833Z"/>
  <path d="M638.977,93.914c18.937-3.886,35.845,17.999,21.748,21.885-7.822,2.156-10.901-7.232-16.822-6.74-2.818.234-16.29,10.215-22.568,12.275-13.437,4.41-25.574,4.584-38.524-1.512-8.453-3.98-19.586-13.269-7.978-20.846,6.153-1.684,17.84,10.15,28.899,9.964,16.868-.284,24.389-12.797,35.246-15.025Z"/>
  <path d="M84.402,325.931c12.678-3.763,12.843,19.778,16.521,29.589,3.52,9.386,10.835,23.623,21.708,25.197,7.928,1.148,23.077-8.621,24.712,3.038,1.731,12.347-19.317,13.95-28.235,12.463-14.914-2.487-26.118-17.627-31.563-30.792-2.988-7.225-13.475-36.429-3.144-39.495Z"/>
  <path d="M708.246,325.931c12.678-3.763,12.843,19.778,16.521,29.589,3.52,9.386,10.835,23.623,21.708,25.197,7.928,1.148,23.077-8.621,24.712,3.038,1.224,8.73-8.113,11.487-15.229,12.428-22.371,2.956-36.593-11.473-44.568-30.756-2.988-7.225-13.475-36.429-3.144-39.495Z"/>
  <path d="M396.324,14.163c12.586-3.735,12.923,19.716,16.554,29.556,3.538,9.59,10.497,23.611,21.676,25.229,7.928,1.148,23.077-8.621,24.712,3.038,1.731,12.347-19.317,13.95-28.235,12.463-14.914-2.487-26.118-17.627-31.563-30.792-2.988-7.225-13.475-36.429-3.144-39.495Z"/>
  <path d="M1020.168,14.163c12.586-3.735,12.923,19.716,16.554,29.556,3.811,10.331,10.823,24.303,23.162,25.474,7.768.737,23.332-9.502,23.348,4.421.012,10.98-20.554,12.137-28.356,10.835-14.914-2.487-26.118-17.627-31.563-30.792-2.988-7.225-13.475-36.429-3.144-39.495Z"/>
  <path d="M987.181,249.869c6.083-.205,8.961,4.853,7.216,10.469-1.295,4.168-10.018,6.77-13.325,10.978-9.356,11.905-6.161,33.17-22.196,43.633-6.974,4.551-28.446,10.757-30.081-.682-1.567-10.959,9.182-8.095,15.672-10.256,15.854-5.278,13.835-25.278,21.032-37.868,3.682-6.441,13.929-16.014,21.681-16.275Z"/>
  <path d="M363.337,249.869c6.083-.205,8.961,4.853,7.216,10.469-1.295,4.168-10.018,6.77-13.325,10.978-9.356,11.905-6.161,33.17-22.196,43.633-6.974,4.551-28.446,10.757-30.081-.682-1.567-10.959,9.182-8.095,15.672-10.256,15.854-5.278,13.835-25.278,21.032-37.868,3.682-6.441,13.929-16.014,21.681-16.275Z"/>
  <path d="M405.018,421.164c7.128-1.099,11.347,5.127,8.252,11.82-5.251,11.355-29.288,23.034-41.579,24.259-8.247.822-50.292,1.845-43.359-13.763,4.002-9.011,16.357-2.282,24.252-1.748,12.966.876,26.332-.364,37.208-7.965,4.539-3.172,9.799-11.765,15.226-12.602Z"/>
  <path d="M1028.862,421.164c7.128-1.099,11.347,5.127,8.252,11.82-5.251,11.355-29.288,23.034-41.579,24.259-8.724.87-40.71,1.443-43.483-8.592-1.231-3.277,2.656-9.442,5.693-10.182,18.407,3.91,39.511,6.744,55.891-4.703,4.539-3.172,9.799-11.765,15.226-12.602Z"/>
  <path d="M93.096,109.396c7.128-1.099,11.347,5.127,8.252,11.82-5.156,11.15-29.529,23.029-41.583,24.254-8.255.839-50.283,1.84-43.354-13.759,4.002-9.011,16.357-2.282,24.252-1.748,12.966.876,26.332-.364,37.208-7.965,4.539-3.172,9.799-11.765,15.226-12.602Z"/>
  <path d="M716.94,109.396c7.128-1.099,11.347,5.127,8.252,11.82-5.156,11.15-29.529,23.029-41.583,24.254-8.256.839-50.281,1.841-43.354-13.759,4.042-9.102,14.817-2.24,22.519-1.747,13.528.865,27.55-.006,38.94-7.966,4.539-3.172,9.799-11.765,15.226-12.602Z"/>
  <path d="M14.288,441.244c-2.293-2.298-3.099-8.383-.591-10.985,15.996-5.847,29.559-13.253,35.643-30.203,2.534-7.06,1.359-20.921,10.434-20.91,17.771.021,1.657,34.717-4.324,42.606-5.953,7.853-32.405,28.272-41.163,19.493Z"/>
  <path d="M638.132,441.244c-2.293-2.298-3.099-8.383-.591-10.985,15.996-5.847,29.559-13.253,35.643-30.203,2.534-7.06,1.359-20.921,10.434-20.91,17.771.021,1.657,34.717-4.324,42.606s-32.405,28.272-41.163,19.493Z"/>
  <path d="M320.062,502.788c3.703,4.353,2.018,12.511-3.858,13.447-6.489,1.034-8.559-3.823-12.509-4.895-9.668-2.624-18.029,7.148-26.973,10.33-7.29,2.594-30.92,7.855-32.433-3.031-1.823-13.124,14.084-8.4,22.673-10.187,14.042-2.922,20.854-16.794,40.239-12.687,2.168.459,11.607,5.551,12.859,7.023Z"/>
  <path d="M943.906,502.788c3.782,4.446,1.895,12.574-3.87,13.463-5.932.915-8.028-3.947-12.441-4.973-10.135-2.357-17.82,7.116-27.028,10.392-7.29,2.594-30.92,7.855-32.433-3.031-1.823-13.124,14.084-8.4,22.673-10.187,14.042-2.922,20.854-16.794,40.239-12.687,2.168.459,11.607,5.551,12.859,7.023Z"/>
  <path d="M1193.541,132.062c7.533,11.072-9.09,20.117-18.159,23.431-7.946,2.904-39.266,8.054-42.65-.012-6.985-16.652,18.882-10.767,28.726-12.172,4.115-.587,9.324-2.308,12.946-4.381,6.942-3.974,9.435-13.346,19.137-6.865Z"/>
  <path d="M569.697,132.062c7.533,11.072-9.09,20.117-18.159,23.431-7.946,2.904-39.266,8.054-42.65-.012-6.985-16.652,18.882-10.767,28.726-12.172,4.115-.587,9.324-2.308,12.946-4.381,6.942-3.974,9.435-13.346,19.137-6.865Z"/>
  <path d="M800.091,480.085c16.561-4.971,20.143,40.216,3.347,28.971-4.454-2.982-12.248-26.299-3.347-28.971Z"/>
  <path d="M176.247,480.085c16.561-4.971,20.143,40.216,3.347,28.971-4.454-2.982-12.248-26.299-3.347-28.971Z"/>
  <path d="M519.444,309.609c-4.429,4.441-14.923,2.377-14.925-5.635-.004-15.099,26.372-5.844,14.925,5.635Z"/>
  <path d="M1143.284,309.604c-7.542,7.481-20.725-3.664-13.004-11.271,8.205-8.084,20.353,3.982,13.004,11.271Z"/>
  <path d="M586.864,523.446c10.377-.921,13.005,15.459,1.19,16.578-10.012.949-12.028-15.616-1.19-16.578Z"/>
  <path d="M280.307,213.471c8.246,8.381-4.284,21.374-11.832,10.954-6.865-9.477,6.097-16.783,11.832-10.954Z"/>
  <path d="M904.151,213.471c8.246,8.381-4.284,21.374-11.832,10.954-6.865-9.477,6.097-16.783,11.832-10.954Z"/>
  <path d="M1210.708,523.446c10.377-.921,13.005,15.459,1.19,16.578-10.012.949-12.028-15.616-1.19-16.578Z"/>
  <path d="M184.923,447.115c10.446-2.635,13.492,15.779,2.816,16.68-9.068.765-12.796-14.162-2.816-16.68Z"/>
  <path d="M931.873,528.7c7.588,7.587-4.949,20.475-11.828,10.96-6.608-9.14,5.173-17.613,11.828-10.96Z"/>
  <path d="M637.21,182.113c11.907-2.802,15.075,20.08-1.746,14.992-7.94-2.402-4.503-13.521,1.746-14.992Z"/>
  <path d="M13.365,182.113c11.907-2.802,15.075,20.08-1.746,14.992-7.94-2.402-4.503-13.521,1.746-14.992Z"/>
  <path d="M308.029,528.7c7.588,7.587-4.949,20.475-11.828,10.96-6.608-9.14,5.173-17.613,11.828-10.96Z"/>
  <path d="M808.767,447.115c10.446-2.635,13.492,15.779,2.816,16.68-9.068.765-12.796-14.162-2.816-16.68Z"/>
  <path d="M616.332,131.914c12.948-4.507,16.552,11.594,5.834,14.623-8.891,2.512-14.513-11.602-5.834-14.623Z"/>
  <path d="M493.368,187.369c14.109-4.231,14.109,19.202,0,14.971-6.503-1.95-6.503-13.021,0-14.971Z"/>
  <path d="M1117.212,187.369c14.109-4.231,14.109,19.202,0,14.971-6.503-1.95-6.503-13.021,0-14.971Z"/>
  <path d="M846.81,79.949c12.588-4.403,16.845,11.085,5.833,14.634-9.106,2.935-13.649-11.9-5.833-14.634Z"/>
  <path d="M222.966,79.948c12.91-4.515,16.572,11.591,5.833,14.623-8.569,2.419-14.057-11.747-5.833-14.623Z"/>
  <path d="M704.663,389.946c12.495-4.185,17.692,11.453,5.872,14.65-9.557,2.586-11.775-12.673-5.872-14.65Z"/>
  <path d="M80.819,389.946c13.105-4.389,16.539,11.673,5.882,14.661-9.458,2.651-11.85-12.662-5.882-14.661Z"/>
</svg>